<svg width="208" height="38" viewBox="0 0 208 38" fill="none" xmlns="http://www.w3.org/2000/svg">
<path d="M17.5 35C7.87873 35 0 27.1337 0 17.5C0 7.86629 7.87873 0 17.5 0C27.1213 0 35 7.87873 35 17.5C35 27.1213 27.1337 35 17.5 35ZM17.5 3.49751C9.79552 3.49751 3.49751 9.79552 3.49751 17.5C3.49751 25.2045 9.79552 31.5025 17.5 31.5025C25.2045 31.5025 31.5025 25.2045 31.5025 17.5C31.5025 9.79552 25.2045 3.49751 17.5 3.49751Z" fill="#1F2937"/>
<path d="M54.5331 3.72827V9.93251H58.751V13.4182H54.5331V23.633C54.4926 24.3732 54.7352 25.1134 55.2203 25.6786C55.7998 26.1631 56.541 26.3919 57.2956 26.3246C57.8077 26.3381 58.3063 26.2843 58.8049 26.1631V29.4335C57.9694 29.7026 57.08 29.8372 56.2041 29.8103C54.7352 29.8911 53.3067 29.3527 52.2421 28.3299C51.218 27.1994 50.6924 25.719 50.7867 24.1982V13.4317H47V9.93251H48.0511C48.8866 9.9998 49.7087 9.69027 50.3016 9.0981C50.8137 8.49248 51.0832 7.71191 51.0563 6.91787V3.72827H54.5331Z" fill="#1F2937"/>
<path d="M71.7804 9.73028V13.7677C71.2279 13.687 70.6753 13.6466 70.1228 13.6466C66.5652 13.6466 64.7324 15.6654 64.7324 19.6894V29.5946H60.9727V9.93215H64.6516V13.3775C65.6084 11.0223 67.9397 9.51495 70.4867 9.60916C70.9314 9.60916 71.3626 9.64953 71.7804 9.73028Z" fill="#1F2937"/>
<path d="M72.187 24.3324C72.1331 22.8117 72.726 21.3582 73.8176 20.295C75.0034 19.2049 76.5262 18.5185 78.1299 18.357L83.399 17.5764C84.3962 17.4418 84.8948 16.9573 84.8948 16.1095C84.9352 15.1539 84.5444 14.2253 83.8437 13.5793C82.9543 12.8526 81.8223 12.5027 80.6768 12.5969C79.5448 12.543 78.4533 12.9199 77.6043 13.6735C76.8227 14.4406 76.351 15.4635 76.2567 16.5536L72.6047 15.7057C72.7799 13.9023 73.6963 12.2469 75.1517 11.1568C76.6879 9.95905 78.5881 9.33997 80.5421 9.38035C82.7656 9.19193 84.9756 9.91868 86.6601 11.3991C87.9943 12.7718 88.7354 14.6291 88.6815 16.5401V26.3646C88.6681 27.4413 88.7489 28.5314 88.9106 29.5946H85.1913C85.043 28.7064 84.9757 27.8047 84.9891 26.903C84.3827 27.8316 83.5742 28.6122 82.6174 29.1909C81.4315 29.8907 80.0839 30.2271 78.7093 30.1733C77.0114 30.2406 75.3403 29.6215 74.0871 28.4776C72.8877 27.4413 72.2004 25.934 72.187 24.3324ZM79.2349 27.0241C80.7038 27.0914 82.1457 26.6203 83.2777 25.6783C84.4366 24.4805 85.0296 22.8386 84.8678 21.1832V20.2815L78.9115 21.1832C78.1433 21.2774 77.4156 21.6004 76.8497 22.1253C76.3241 22.6502 76.0546 23.3769 76.0815 24.1171C76.068 24.8708 76.3915 25.611 76.944 26.1224C77.5639 26.7145 78.3859 27.0241 79.2349 26.9837V27.0241Z" fill="#1F2937"/>
<path d="M105.81 26.9434V26.6204C105.27 27.6567 104.475 28.518 103.478 29.1236C102.373 29.81 101.079 30.1599 99.7723 30.133C97.1849 30.2406 94.7053 29.1371 93.0343 27.1722C91.2959 25.0727 90.393 22.4214 90.5008 19.7028C90.4335 17.0381 91.3498 14.4407 93.0882 12.4085C94.7323 10.4436 97.1714 9.34001 99.7319 9.4073C101.093 9.35347 102.441 9.67646 103.613 10.3628C104.543 10.9146 105.257 11.7356 105.688 12.718V0H109.448V25.9609C109.435 27.1722 109.515 28.3834 109.65 29.5946H106.012C105.877 28.7199 105.81 27.8316 105.81 26.9434ZM94.4223 19.7028C94.3415 21.5197 94.8805 23.3096 95.9451 24.7766C96.9423 26.0686 98.5056 26.8088 100.136 26.7415C101.726 26.7684 103.236 26.0148 104.179 24.7362C105.244 23.2558 105.796 21.4524 105.715 19.6221C105.796 17.8591 105.27 16.1095 104.219 14.6829C103.249 13.4582 101.74 12.7584 100.177 12.7988C98.5595 12.7584 97.0097 13.4582 95.999 14.7233C94.9075 16.1499 94.3415 17.9129 94.4223 19.7028Z" fill="#1F2937"/>
<path d="M127.235 22.8523L130.51 23.9962C129.971 25.7862 128.866 27.3608 127.357 28.4778C125.74 29.6621 123.772 30.2678 121.764 30.2139C119.15 30.2678 116.63 29.2449 114.811 27.3742C112.843 25.3151 111.819 22.5427 111.967 19.703C111.859 16.971 112.83 14.3063 114.662 12.2741C118.166 8.51926 124.042 8.30393 127.801 11.8031C127.909 11.9107 128.031 12.0184 128.138 12.1261C129.89 14.2255 130.807 16.8903 130.685 19.6223C130.685 20.026 130.658 20.4432 130.604 20.847H115.862C115.835 22.4485 116.455 23.9962 117.587 25.1402C118.678 26.2437 120.174 26.8628 121.737 26.8224C124.298 27.0109 126.616 25.342 127.235 22.8523ZM116.01 17.7516H126.643C126.629 16.4058 126.104 15.1138 125.174 14.1313C124.136 13.1354 122.721 12.624 121.293 12.7182C119.891 12.6779 118.544 13.2162 117.56 14.2121C116.63 15.1676 116.077 16.4192 116.01 17.7516Z" fill="#1F2937"/>
<path d="M131.238 24.4939L134.729 23.2692C134.823 24.3055 135.308 25.261 136.076 25.9608C136.966 26.6876 138.084 27.0509 139.23 26.9971C140.105 27.0375 140.968 26.7818 141.655 26.2434C142.221 25.7993 142.558 25.113 142.558 24.3862C142.558 23.0404 141.709 22.2329 140.038 21.8426L136.723 21.1159C135.348 20.8602 134.095 20.1738 133.152 19.151C132.276 18.182 131.791 16.9034 131.804 15.598C131.791 13.8753 132.559 12.2469 133.893 11.1568C135.227 9.94554 136.966 9.28608 138.771 9.32646C139.903 9.313 141.022 9.50141 142.086 9.87824C142.949 10.1609 143.731 10.6723 144.364 11.3317C144.836 11.8297 145.24 12.3949 145.577 13.0006C145.846 13.512 146.048 14.0503 146.183 14.6021L142.814 15.8672C142.76 15.5307 142.666 15.2077 142.531 14.8982C142.356 14.5348 142.154 14.1849 141.898 13.8619C141.574 13.4581 141.143 13.1351 140.658 12.9467C140.065 12.7045 139.418 12.5833 138.771 12.5968C137.922 12.5564 137.1 12.8391 136.44 13.3774C135.874 13.808 135.551 14.481 135.537 15.1942C135.537 16.4459 136.278 17.2399 137.761 17.5629L140.914 18.2627C142.45 18.5184 143.865 19.2586 144.957 20.3622C145.873 21.3985 146.345 22.7309 146.304 24.1036C146.277 25.7051 145.604 27.2259 144.418 28.316C143.003 29.6349 141.103 30.3078 139.176 30.2002C137.141 30.3213 135.133 29.6753 133.543 28.3833C132.33 27.4143 131.521 26.0281 131.238 24.4939Z" fill="#1F2937"/>
<path d="M149.334 28.9892C148.795 28.4643 148.498 27.7376 148.525 26.9839C148.512 26.2303 148.808 25.5035 149.334 24.9652C150.371 23.8482 152.123 23.7943 153.242 24.8306C153.296 24.871 153.336 24.9248 153.376 24.9652C153.929 25.4901 154.225 26.2168 154.212 26.9839C154.225 27.7376 153.929 28.4643 153.376 28.9892C152.285 30.1062 150.493 30.1197 149.374 29.0296C149.361 29.0161 149.347 29.0027 149.334 28.9892Z" fill="#1F2937"/>
<path d="M158.389 12.287C162.337 8.34377 168.738 8.34377 172.687 12.287C174.574 14.3058 175.584 16.984 175.503 19.7429C175.611 22.5422 174.6 25.2608 172.7 27.3064C168.738 31.2497 162.337 31.2497 158.375 27.3064C156.489 25.2742 155.478 22.5691 155.572 19.7967C155.478 17.0243 156.489 14.3192 158.389 12.287ZM161.219 24.9243C163.469 27.3064 167.229 27.4141 169.614 25.1666C169.695 25.0858 169.776 25.0051 169.857 24.9243C171.097 23.4843 171.717 21.627 171.609 19.7429C171.717 17.8722 171.097 16.0284 169.857 14.6153C167.606 12.2332 163.847 12.1255 161.461 14.3731C161.381 14.4538 161.3 14.5346 161.219 14.6153C159.979 16.0284 159.359 17.8722 159.467 19.7429C159.359 21.6405 159.993 23.4977 161.219 24.9243Z" fill="#1F2937"/>
<path d="M188.754 9.73001V13.7675C188.201 13.6867 187.635 13.6464 187.083 13.6464C183.485 13.6464 181.693 15.6651 181.693 19.6891V29.5943H177.879V9.93188H181.612V13.3772C182.555 11.022 184.886 9.50122 187.433 9.60888C187.878 9.60888 188.323 9.64926 188.754 9.73001Z" fill="#1F2937"/>
<path d="M188.754 30.6574L192.433 29.8095C192.541 31.1284 193.12 32.3531 194.09 33.2548C195.088 34.1699 196.395 34.6544 197.742 34.6006C201.704 34.6006 203.685 32.4742 203.685 28.2214V25.4356C203.173 26.418 202.378 27.2255 201.408 27.7638C200.289 28.3829 199.023 28.679 197.742 28.6521C195.317 28.7059 192.985 27.7369 191.328 25.9604C189.616 24.1032 188.713 21.6403 188.808 19.1102C188.74 16.607 189.643 14.1845 191.328 12.3272C192.972 10.5238 195.33 9.54139 197.769 9.6356C200.734 9.6356 202.728 10.6719 203.766 12.7444V10.0528H207.499V28.1272C207.512 29.3654 207.337 30.6035 206.987 31.7878C206.65 32.9183 206.111 33.9815 205.397 34.9102C204.602 35.9195 203.537 36.7001 202.338 37.1577C200.882 37.7364 199.319 38.019 197.742 37.9786C195.519 38.0459 193.349 37.3192 191.624 35.9195C190.007 34.6275 188.97 32.7299 188.754 30.6574ZM198.308 25.4356C199.858 25.5028 201.34 24.8569 202.351 23.686C203.416 22.4209 203.968 20.7925 203.887 19.1371C203.968 17.4817 203.416 15.8533 202.351 14.5748C201.34 13.4174 199.845 12.7714 198.308 12.8387C196.772 12.7983 195.29 13.4174 194.266 14.5613C193.174 15.8264 192.621 17.4683 192.702 19.1371C192.621 20.8059 193.161 22.4478 194.225 23.7398C195.276 24.8838 196.772 25.5028 198.308 25.4356Z" fill="#1F2937"/>
</svg>
