<svg width="150" height="56" viewBox="0 0 150 56" fill="none" xmlns="http://www.w3.org/2000/svg">
<path d="M3.45455 6.90909H4.54545L4.45455 4.40909L6.56818 5.75L7.11364 4.79545L4.88636 3.63636L7.11364 2.47727L6.56818 1.52273L4.45455 2.86364L4.54545 0.363636H3.45455L3.54545 2.86364L1.43182 1.52273L0.886364 2.47727L3.11364 3.63636L0.886364 4.79545L1.43182 5.75L3.54545 4.40909L3.45455 6.90909ZM11.5227 12H12.9773L15.5455 2.72727H15.6364L18.2045 12H19.6591L22.8409 0.363636H21.4091L18.9773 9.84091H18.8636L16.3864 0.363636H14.7955L12.3182 9.84091H12.2045L9.77273 0.363636H8.34091L11.5227 12ZM27.2614 12.1818C29.0341 12.1818 30.3295 11.2955 30.7386 9.97727L29.4432 9.61364C29.1023 10.5227 28.3125 10.9773 27.2614 10.9773C25.6875 10.9773 24.6023 9.96023 24.5398 8.09091H30.875V7.52273C30.875 4.27273 28.9432 3.15909 27.125 3.15909C24.7614 3.15909 23.1932 5.02273 23.1932 7.70455C23.1932 10.3864 24.7386 12.1818 27.2614 12.1818ZM24.5398 6.93182C24.6307 5.57386 25.5909 4.36364 27.125 4.36364C28.5795 4.36364 29.5114 5.45455 29.5114 6.93182H24.5398ZM33.0966 12H34.392V10.6591H34.5511C34.8466 11.1364 35.4148 12.1818 37.0966 12.1818C39.2784 12.1818 40.8011 10.4318 40.8011 7.65909C40.8011 4.90909 39.2784 3.15909 37.0739 3.15909C35.3693 3.15909 34.8466 4.20455 34.5511 4.65909H34.4375V0.363636H33.0966V12ZM34.4148 7.63636C34.4148 5.68182 35.2784 4.36364 36.9148 4.36364C38.6193 4.36364 39.4602 5.79545 39.4602 7.63636C39.4602 9.5 38.5966 10.9773 36.9148 10.9773C35.3011 10.9773 34.4148 9.61364 34.4148 7.63636ZM49.0341 5.22727C48.6136 3.98864 47.6705 3.15909 45.9432 3.15909C44.1023 3.15909 42.7386 4.20455 42.7386 5.68182C42.7386 6.88636 43.4545 7.69318 45.0568 8.06818L46.5114 8.40909C47.392 8.61364 47.8068 9.03409 47.8068 9.63636C47.8068 10.3864 47.0114 11 45.7614 11C44.6648 11 43.9773 10.5284 43.7386 9.59091L42.4659 9.90909C42.7784 11.392 44 12.1818 45.7841 12.1818C47.8125 12.1818 49.1932 11.0739 49.1932 9.56818C49.1932 8.35227 48.4318 7.58523 46.875 7.20455L45.5795 6.88636C44.5455 6.63068 44.0795 6.28409 44.0795 5.61364C44.0795 4.86364 44.875 4.31818 45.9432 4.31818C47.1136 4.31818 47.5966 4.96591 47.8295 5.56818L49.0341 5.22727ZM51.2116 12H52.5526V3.27273H51.2116V12ZM51.8935 1.81818C52.4162 1.81818 52.848 1.40909 52.848 0.909091C52.848 0.409091 52.4162 0 51.8935 0C51.3707 0 50.9389 0.409091 50.9389 0.909091C50.9389 1.40909 51.3707 1.81818 51.8935 1.81818ZM58.804 3.27273H56.9403V1.18182H55.5994V3.27273H54.2812V4.40909H55.5994V9.86364C55.5994 11.3864 56.8267 12.1136 57.9631 12.1136C58.4631 12.1136 58.7812 12.0227 58.9631 11.9545L58.6903 10.75C58.5767 10.7727 58.3949 10.8182 58.0994 10.8182C57.5085 10.8182 56.9403 10.6364 56.9403 9.5V4.40909H58.804V3.27273ZM64.3864 12.1818C66.1591 12.1818 67.4545 11.2955 67.8636 9.97727L66.5682 9.61364C66.2273 10.5227 65.4375 10.9773 64.3864 10.9773C62.8125 10.9773 61.7273 9.96023 61.6648 8.09091H68V7.52273C68 4.27273 66.0682 3.15909 64.25 3.15909C61.8864 3.15909 60.3182 5.02273 60.3182 7.70455C60.3182 10.3864 61.8636 12.1818 64.3864 12.1818ZM61.6648 6.93182C61.7557 5.57386 62.7159 4.36364 64.25 4.36364C65.7045 4.36364 66.6364 5.45455 66.6364 6.93182H61.6648ZM76.2216 5.22727C75.8011 3.98864 74.858 3.15909 73.1307 3.15909C71.2898 3.15909 69.9261 4.20455 69.9261 5.68182C69.9261 6.88636 70.642 7.69318 72.2443 8.06818L73.6989 8.40909C74.5795 8.61364 74.9943 9.03409 74.9943 9.63636C74.9943 10.3864 74.1989 11 72.9489 11C71.8523 11 71.1648 10.5284 70.9261 9.59091L69.6534 9.90909C69.9659 11.392 71.1875 12.1818 72.9716 12.1818C75 12.1818 76.3807 11.0739 76.3807 9.56818C76.3807 8.35227 75.6193 7.58523 74.0625 7.20455L72.767 6.88636C71.733 6.63068 71.267 6.28409 71.267 5.61364C71.267 4.86364 72.0625 4.31818 73.1307 4.31818C74.3011 4.31818 74.7841 4.96591 75.017 5.56818L76.2216 5.22727ZM85.4673 12.2045C86.9901 12.2045 87.7855 11.3864 88.0582 10.8182H88.1264V12H89.4673V6.25C89.4673 3.47727 87.3537 3.15909 86.2401 3.15909C84.9219 3.15909 83.4219 3.61364 82.7401 5.20455L84.0128 5.65909C84.3082 5.02273 85.0071 4.34091 86.2855 4.34091C87.5185 4.34091 88.1264 4.99432 88.1264 6.11364V6.15909C88.1264 6.80682 87.4673 6.75 85.8764 6.95455C84.2571 7.16477 82.4901 7.52273 82.4901 9.52273C82.4901 11.2273 83.8082 12.2045 85.4673 12.2045ZM85.6719 11C84.6037 11 83.831 10.5227 83.831 9.59091C83.831 8.56818 84.7628 8.25 85.8082 8.11364C86.3764 8.04545 87.8991 7.88636 88.1264 7.61364V8.84091C88.1264 9.93182 87.2628 11 85.6719 11ZM91.9148 12H93.2557V6.47727C93.2557 5.29545 94.1875 4.43182 95.4602 4.43182C95.8182 4.43182 96.1875 4.5 96.2784 4.52273V3.15909C96.125 3.14773 95.7727 3.13636 95.5739 3.13636C94.5284 3.13636 93.6193 3.72727 93.3011 4.59091H93.2102V3.27273H91.9148V12ZM101.261 12.1818C103.034 12.1818 104.33 11.2955 104.739 9.97727L103.443 9.61364C103.102 10.5227 102.312 10.9773 101.261 10.9773C99.6875 10.9773 98.6023 9.96023 98.5398 8.09091H104.875V7.52273C104.875 4.27273 102.943 3.15909 101.125 3.15909C98.7614 3.15909 97.1932 5.02273 97.1932 7.70455C97.1932 10.3864 98.7386 12.1818 101.261 12.1818ZM98.5398 6.93182C98.6307 5.57386 99.5909 4.36364 101.125 4.36364C102.58 4.36364 103.511 5.45455 103.511 6.93182H98.5398ZM111.597 12H112.892V10.6591H113.051C113.347 11.1364 113.915 12.1818 115.597 12.1818C117.778 12.1818 119.301 10.4318 119.301 7.65909C119.301 4.90909 117.778 3.15909 115.574 3.15909C113.869 3.15909 113.347 4.20455 113.051 4.65909H112.938V0.363636H111.597V12ZM112.915 7.63636C112.915 5.68182 113.778 4.36364 115.415 4.36364C117.119 4.36364 117.96 5.79545 117.96 7.63636C117.96 9.5 117.097 10.9773 115.415 10.9773C113.801 10.9773 112.915 9.61364 112.915 7.63636ZM121.352 12H122.693V3.27273H121.352V12ZM122.034 1.81818C122.557 1.81818 122.989 1.40909 122.989 0.909091C122.989 0.409091 122.557 0 122.034 0C121.511 0 121.08 0.409091 121.08 0.909091C121.08 1.40909 121.511 1.81818 122.034 1.81818ZM126.49 0.363636H125.149V12H126.49V0.363636ZM130.287 0.363636H128.946V12H130.287V0.363636ZM136.402 12.1818C138.175 12.1818 139.47 11.2955 139.879 9.97727L138.584 9.61364C138.243 10.5227 137.453 10.9773 136.402 10.9773C134.828 10.9773 133.743 9.96023 133.68 8.09091H140.016V7.52273C140.016 4.27273 138.084 3.15909 136.266 3.15909C133.902 3.15909 132.334 5.02273 132.334 7.70455C132.334 10.3864 133.879 12.1818 136.402 12.1818ZM133.68 6.93182C133.771 5.57386 134.732 4.36364 136.266 4.36364C137.72 4.36364 138.652 5.45455 138.652 6.93182H133.68ZM145.351 12.1818C147.033 12.1818 147.601 11.1364 147.896 10.6591H148.055V12H149.351V0.363636H148.01V4.65909H147.896C147.601 4.20455 147.078 3.15909 145.374 3.15909C143.169 3.15909 141.646 4.90909 141.646 7.65909C141.646 10.4318 143.169 12.1818 145.351 12.1818ZM145.533 10.9773C143.851 10.9773 142.987 9.5 142.987 7.63636C142.987 5.79545 143.828 4.36364 145.533 4.36364C147.169 4.36364 148.033 5.68182 148.033 7.63636C148.033 9.61364 147.146 10.9773 145.533 10.9773ZM3.79545 32.2045C5.31818 32.2045 6.11364 31.3864 6.38636 30.8182H6.45455V32H7.79545V26.25C7.79545 23.4773 5.68182 23.1591 4.56818 23.1591C3.25 23.1591 1.75 23.6136 1.06818 25.2045L2.34091 25.6591C2.63636 25.0227 3.33523 24.3409 4.61364 24.3409C5.84659 24.3409 6.45455 24.9943 6.45455 26.1136V26.1591C6.45455 26.8068 5.79545 26.75 4.20455 26.9545C2.58523 27.1648 0.818182 27.5227 0.818182 29.5227C0.818182 31.2273 2.13636 32.2045 3.79545 32.2045ZM4 31C2.93182 31 2.15909 30.5227 2.15909 29.5909C2.15909 28.5682 3.09091 28.25 4.13636 28.1136C4.70455 28.0455 6.22727 27.8864 6.45455 27.6136V28.8409C6.45455 29.9318 5.59091 31 4 31ZM14.0384 23.2727H12.1747V21.1818H10.8338V23.2727H9.51562V24.4091H10.8338V29.8636C10.8338 31.3864 12.0611 32.1136 13.1974 32.1136C13.6974 32.1136 14.0156 32.0227 14.1974 31.9545L13.9247 30.75C13.8111 30.7727 13.6293 30.8182 13.3338 30.8182C12.7429 30.8182 12.1747 30.6364 12.1747 29.5V24.4091H14.0384V23.2727ZM23.9645 33.4545H24.8963V32.1875C27.2827 32.0227 28.6236 30.6136 28.6236 28.8409C28.6236 26.6591 26.5554 25.9545 25.3509 25.6364L24.8963 25.5114V21.4716C26.1009 21.5909 26.9759 22.2386 27.1009 23.2727H28.4645C28.4077 21.6136 26.9531 20.3523 24.8963 20.2159V18.9091H23.9645V20.233C22.0156 20.4318 20.5554 21.6705 20.5554 23.4545C20.5554 25.0227 21.6918 25.9545 23.5099 26.4773L23.9645 26.608V30.9091C22.7713 30.7841 21.794 30.1705 21.6918 29H20.2372C20.3679 30.7898 21.7315 32.0398 23.9645 32.1875V33.4545ZM24.8963 30.9091V26.875L24.9418 26.8864C26.169 27.2273 27.2599 27.6591 27.2599 28.8182C27.2599 29.9602 26.2713 30.7557 24.8963 30.9091ZM23.9645 25.2614C23.1009 25.017 21.919 24.5398 21.919 23.3864C21.919 22.4034 22.7145 21.6534 23.9645 21.4886V25.2614ZM30.4631 29.6136H35.9403V32H37.2812V29.6136H38.8722V28.3636H37.2812V20.3636H35.5767L30.4631 28.4545V29.6136ZM35.9403 28.3636H31.9858V28.2727L35.8494 22.1591H35.9403V28.3636ZM44.706 20.2045C42.3423 20.1761 40.8196 21.9545 40.8196 24.0909C40.8196 26.3409 42.4787 27.9545 44.4787 27.9545C45.6832 27.9545 46.706 27.3636 47.3423 26.4091H47.4332C47.4332 29.2727 46.3196 30.9091 44.5241 30.9091C43.2969 30.9091 42.5469 30.1364 42.2969 29.0682H40.9105C41.1832 30.9091 42.5696 32.1591 44.5241 32.1591C47.1378 32.1591 48.7514 29.8409 48.7514 25.7045C48.7514 21.4318 46.6151 20.2273 44.706 20.2045ZM44.706 21.4545C46.1605 21.4545 47.2287 22.7045 47.2287 24.0682C47.2287 25.4545 46.0923 26.7045 44.6605 26.7045C43.2287 26.7045 42.1832 25.5455 42.1832 24.0909C42.1832 22.6364 43.2741 21.4545 44.706 21.4545ZM55.1222 19.8182H53.8949L50.1449 33.75H51.3722L55.1222 19.8182ZM56.7116 32H58.0526V26.5455C58.0526 25.267 58.9844 24.3636 60.0298 24.3636C61.0469 24.3636 61.7571 25.0284 61.7571 26.0227V32H63.1207V26.3182C63.1207 25.1932 63.8253 24.3636 65.0526 24.3636C66.0071 24.3636 66.8253 24.8693 66.8253 26.1591V32H68.1662V26.1591C68.1662 24.108 67.0639 23.1591 65.5071 23.1591C64.2571 23.1591 63.3423 23.733 62.8935 24.6364H62.8026C62.3707 23.7045 61.6094 23.1591 60.4616 23.1591C59.3253 23.1591 58.4844 23.7045 58.1207 24.6364H58.0071V23.2727H56.7116V32ZM74.1634 32.1818C76.527 32.1818 78.1179 30.3864 78.1179 27.6818C78.1179 24.9545 76.527 23.1591 74.1634 23.1591C71.7997 23.1591 70.2088 24.9545 70.2088 27.6818C70.2088 30.3864 71.7997 32.1818 74.1634 32.1818ZM74.1634 30.9773C72.3679 30.9773 71.5497 29.4318 71.5497 27.6818C71.5497 25.9318 72.3679 24.3636 74.1634 24.3636C75.9588 24.3636 76.777 25.9318 76.777 27.6818C76.777 29.4318 75.9588 30.9773 74.1634 30.9773ZM81.5057 26.75C81.5057 25.2273 82.4489 24.3636 83.733 24.3636C84.9773 24.3636 85.733 25.1761 85.733 26.5455V32H87.0739V26.4545C87.0739 24.2273 85.8864 23.1591 84.1193 23.1591C82.8011 23.1591 81.983 23.75 81.5739 24.6364H81.4602V23.2727H80.1648V32H81.5057V26.75ZM93.3196 23.2727H91.456V21.1818H90.1151V23.2727H88.7969V24.4091H90.1151V29.8636C90.1151 31.3864 91.3423 32.1136 92.4787 32.1136C92.9787 32.1136 93.2969 32.0227 93.4787 31.9545L93.206 30.75C93.0923 30.7727 92.9105 30.8182 92.6151 30.8182C92.0241 30.8182 91.456 30.6364 91.456 29.5V24.4091H93.3196V23.2727ZM96.8651 26.75C96.8651 25.2273 97.8366 24.3636 99.1605 24.3636C100.422 24.3636 101.183 25.1591 101.183 26.5455V32H102.524V26.4545C102.524 24.2102 101.331 23.1591 99.5469 23.1591C98.1719 23.1591 97.3878 23.733 96.9787 24.6364H96.8651V20.3636H95.5241V32H96.8651V26.75ZM114.977 28.4318C114.977 30.0682 113.727 30.8182 112.727 30.8182C111.614 30.8182 110.818 30 110.818 28.7273V23.2727H109.477V28.8182C109.477 31.0455 110.659 32.1136 112.295 32.1136C113.614 32.1136 114.477 31.4091 114.886 30.5227H114.977V32H116.318V23.2727H114.977V28.4318ZM120.115 26.75C120.115 25.2273 121.058 24.3636 122.342 24.3636C123.587 24.3636 124.342 25.1761 124.342 26.5455V32H125.683V26.4545C125.683 24.2273 124.496 23.1591 122.729 23.1591C121.411 23.1591 120.592 23.75 120.183 24.6364H120.07V23.2727H118.774V32H120.115V26.75ZM131.929 23.2727H130.065V21.1818H128.724V23.2727H127.406V24.4091H128.724V29.8636C128.724 31.3864 129.952 32.1136 131.088 32.1136C131.588 32.1136 131.906 32.0227 132.088 31.9545L131.815 30.75C131.702 30.7727 131.52 30.8182 131.224 30.8182C130.634 30.8182 130.065 30.6364 130.065 29.5V24.4091H131.929V23.2727ZM133.946 32H135.287V23.2727H133.946V32ZM134.628 21.8182C135.151 21.8182 135.582 21.4091 135.582 20.9091C135.582 20.4091 135.151 20 134.628 20C134.105 20 133.673 20.4091 133.673 20.9091C133.673 21.4091 134.105 21.8182 134.628 21.8182ZM139.084 20.3636H137.743V32H139.084V20.3636ZM2.09091 55.2727C3.30114 55.2727 4.15341 54.6307 4.65909 53.2727L8.375 43.2955L6.90909 43.2727L4.5 50.2273H4.40909L2 43.2727H0.545455L3.77273 52.0455L3.52273 52.7273C3.03409 54.0568 2.43182 54.1818 1.45455 53.9318L1.11364 55.1136C1.25 55.1818 1.63636 55.2727 2.09091 55.2727ZM13.3821 52.1818C15.7457 52.1818 17.3366 50.3864 17.3366 47.6818C17.3366 44.9545 15.7457 43.1591 13.3821 43.1591C11.0185 43.1591 9.42756 44.9545 9.42756 47.6818C9.42756 50.3864 11.0185 52.1818 13.3821 52.1818ZM13.3821 50.9773C11.5866 50.9773 10.7685 49.4318 10.7685 47.6818C10.7685 45.9318 11.5866 44.3636 13.3821 44.3636C15.1776 44.3636 15.9957 45.9318 15.9957 47.6818C15.9957 49.4318 15.1776 50.9773 13.3821 50.9773ZM24.8835 48.4318C24.8835 50.0682 23.6335 50.8182 22.6335 50.8182C21.5199 50.8182 20.7244 50 20.7244 48.7273V43.2727H19.3835V48.8182C19.3835 51.0455 20.5653 52.1136 22.2017 52.1136C23.5199 52.1136 24.3835 51.4091 24.7926 50.5227H24.8835V52H26.2244V43.2727H24.8835V48.4318ZM36.7259 52.1818C38.6577 52.1818 39.9304 51 40.1577 49.4545H38.8168C38.5668 50.4091 37.7713 50.9773 36.7259 50.9773C35.1349 50.9773 34.1122 49.6591 34.1122 47.6364C34.1122 45.6591 35.1577 44.3636 36.7259 44.3636C37.9077 44.3636 38.6122 45.0909 38.8168 45.8864H40.1577C39.9304 44.25 38.544 43.1591 36.7031 43.1591C34.3395 43.1591 32.7713 45.0227 32.7713 47.6818C32.7713 50.2955 34.2713 52.1818 36.7259 52.1818ZM44.6861 52.2045C46.2088 52.2045 47.0043 51.3864 47.277 50.8182H47.3452V52H48.6861V46.25C48.6861 43.4773 46.5724 43.1591 45.4588 43.1591C44.1406 43.1591 42.6406 43.6136 41.9588 45.2045L43.2315 45.6591C43.527 45.0227 44.2259 44.3409 45.5043 44.3409C46.7372 44.3409 47.3452 44.9943 47.3452 46.1136V46.1591C47.3452 46.8068 46.6861 46.75 45.0952 46.9545C43.4759 47.1648 41.7088 47.5227 41.7088 49.5227C41.7088 51.2273 43.027 52.2045 44.6861 52.2045ZM44.8906 51C43.8224 51 43.0497 50.5227 43.0497 49.5909C43.0497 48.5682 43.9815 48.25 45.027 48.1136C45.5952 48.0455 47.1179 47.8864 47.3452 47.6136V48.8409C47.3452 49.9318 46.4815 51 44.8906 51ZM52.4744 46.75C52.4744 45.2273 53.4176 44.3636 54.7017 44.3636C55.946 44.3636 56.7017 45.1761 56.7017 46.5455V52H58.0426V46.4545C58.0426 44.2273 56.8551 43.1591 55.0881 43.1591C53.7699 43.1591 52.9517 43.75 52.5426 44.6364H52.429V43.2727H51.1335V52H52.4744V46.75ZM64.0384 52.1818C65.9702 52.1818 67.2429 51 67.4702 49.4545H66.1293C65.8793 50.4091 65.0838 50.9773 64.0384 50.9773C62.4474 50.9773 61.4247 49.6591 61.4247 47.6364C61.4247 45.6591 62.4702 44.3636 64.0384 44.3636C65.2202 44.3636 65.9247 45.0909 66.1293 45.8864H67.4702C67.2429 44.25 65.8565 43.1591 64.0156 43.1591C61.652 43.1591 60.0838 45.0227 60.0838 47.6818C60.0838 50.2955 61.5838 52.1818 64.0384 52.1818ZM73.0895 52.1818C74.8622 52.1818 76.1577 51.2955 76.5668 49.9773L75.2713 49.6136C74.9304 50.5227 74.1406 50.9773 73.0895 50.9773C71.5156 50.9773 70.4304 49.9602 70.3679 48.0909H76.7031V47.5227C76.7031 44.2727 74.7713 43.1591 72.9531 43.1591C70.5895 43.1591 69.0213 45.0227 69.0213 47.7045C69.0213 50.3864 70.5668 52.1818 73.0895 52.1818ZM70.3679 46.9318C70.4588 45.5739 71.419 44.3636 72.9531 44.3636C74.4077 44.3636 75.3395 45.4545 75.3395 46.9318H70.3679ZM80.0838 40.3636H78.7429V52H80.0838V40.3636ZM83.517 52.0909C84.0795 52.0909 84.5398 51.6307 84.5398 51.0682C84.5398 50.5057 84.0795 50.0455 83.517 50.0455C82.9545 50.0455 82.4943 50.5057 82.4943 51.0682C82.4943 51.6307 82.9545 52.0909 83.517 52.0909Z" fill="white"/>
</svg>
