<svg width="229" height="229" viewBox="0 0 229 229" fill="none" xmlns="http://www.w3.org/2000/svg">
<circle cx="114.5" cy="114.5" r="114.5" fill="#6DB9D7"/>
<path d="M44.5881 68H47.9688L50.5895 59.179H50.7031L53.3239 68H56.7116L60.9375 53.4545H57.0597L54.858 63.0071H54.7372L52.2301 53.4545H49.0625L46.5554 62.9858H46.4347L44.2401 53.4545H40.3551L44.5881 68ZM66.2589 68.206C69.1211 68.206 71.0032 66.821 71.4009 64.6761L68.212 64.5838C67.9421 65.3082 67.2319 65.6989 66.3228 65.6989C64.9876 65.6989 64.1637 64.8111 64.1637 63.4759V63.3835H71.4364V62.517C71.4364 58.9233 69.2489 56.9489 66.1523 56.9489C62.8569 56.9489 60.7404 59.2074 60.7404 62.5881C60.7404 66.0824 62.8285 68.206 66.2589 68.206ZM64.1637 61.3665C64.2134 60.2798 65.0728 59.456 66.2234 59.456C67.3668 59.456 68.1907 60.2514 68.2049 61.3665H64.1637ZM76.1009 53.4545H73.6009V55.081C73.6009 56.3381 73.2031 57.1974 72.7628 57.9148L74.2401 58.7244C75.1918 57.9006 76.1009 56.4233 76.1009 55.0739V53.4545ZM81.527 53.4545H78.054V68H81.527V53.4545ZM87.2106 53.4545H83.7376V68H87.2106V53.4545ZM93.718 68H97.1555V66.2315H97.2621C97.7024 67.2401 98.6825 68.1562 100.33 68.1562C102.745 68.1562 104.691 66.267 104.691 62.5526C104.691 58.7031 102.631 56.9489 100.352 56.9489C98.6257 56.9489 97.6811 57.9574 97.2621 58.9588H97.1911V53.4545H93.718V68ZM97.12 62.5455C97.12 60.7628 97.8587 59.6619 99.13 59.6619C100.415 59.6619 101.126 60.7912 101.126 62.5455C101.126 64.3068 100.415 65.4503 99.13 65.4503C97.8587 65.4503 97.12 64.3139 97.12 62.5455ZM113.549 63.2912C113.549 64.5625 112.74 65.2727 111.71 65.2727C110.645 65.2727 109.991 64.5483 109.984 63.3622V57.0909H106.511V64.044C106.518 66.5085 108.017 68.142 110.261 68.142C111.895 68.142 113.109 67.304 113.592 65.9688H113.706V68H117.015V57.0909H113.549V63.2912ZM119.226 68H122.699V57.0909H119.226V68ZM120.966 55.8196C121.953 55.8196 122.749 55.0739 122.749 54.1577C122.749 53.2415 121.953 52.5028 120.966 52.5028C119.986 52.5028 119.183 53.2415 119.183 54.1577C119.183 55.0739 119.986 55.8196 120.966 55.8196ZM128.382 53.4545H124.909V68H128.382V53.4545ZM134.577 68.1562C136.225 68.1562 137.205 67.2401 137.646 66.2315H137.752V68H141.19V53.4545H137.717V58.9588H137.646C137.234 57.9574 136.282 56.9489 134.563 56.9489C132.283 56.9489 130.217 58.7031 130.217 62.5526C130.217 66.267 132.17 68.1562 134.577 68.1562ZM135.785 65.4503C134.499 65.4503 133.782 64.3068 133.782 62.5455C133.782 60.7912 134.492 59.6619 135.785 59.6619C137.056 59.6619 137.795 60.7628 137.795 62.5455C137.795 64.3139 137.049 65.4503 135.785 65.4503ZM149.806 72.0909C152.306 72.0909 153.549 70.8267 154.153 69.044L158.265 57.098L154.608 57.0909L152.569 64.875H152.456L150.446 57.0909H146.809L150.687 68.3977L150.552 68.7244C150.218 69.5412 149.466 69.5554 148.443 69.2216L147.676 71.7429C148.201 71.956 148.975 72.0909 149.806 72.0909ZM164.338 68.206C167.768 68.206 169.849 65.9403 169.849 62.581C169.849 59.2145 167.768 56.9489 164.338 56.9489C160.907 56.9489 158.826 59.2145 158.826 62.581C158.826 65.9403 160.907 68.206 164.338 68.206ZM164.359 65.5852C163.074 65.5852 162.363 64.3636 162.363 62.5597C162.363 60.7486 163.074 59.5199 164.359 59.5199C165.602 59.5199 166.312 60.7486 166.312 62.5597C166.312 64.3636 165.602 65.5852 164.359 65.5852ZM178.667 63.2912C178.667 64.5625 177.857 65.2727 176.827 65.2727C175.762 65.2727 175.108 64.5483 175.101 63.3622V57.0909H171.628V64.044C171.635 66.5085 173.134 68.142 175.378 68.142C177.012 68.142 178.226 67.304 178.709 65.9688H178.823V68H182.132V57.0909H178.667V63.2912ZM184.343 68H187.816V62.0767C187.816 60.777 188.739 59.9034 189.982 59.9034C190.394 59.9034 191.012 59.9744 191.346 60.0881V57.0696C191.055 56.9915 190.692 56.9418 190.373 56.9418C189.18 56.9418 188.228 57.6378 187.83 59.0795H187.717V57.0909H184.343V68ZM43.1392 88H46.8608L48.5653 81.6435H48.6861L50.3906 88H54.1051L56.9531 77.0909H53.4659L52.0384 84.0298H51.946L50.3267 77.0909H46.9247L45.348 84.0795H45.2557L43.7855 77.0909H40.2983L43.1392 88ZM63.212 88.206C66.0742 88.206 67.9563 86.821 68.354 84.6761L65.1651 84.5838C64.8952 85.3082 64.185 85.6989 63.2759 85.6989C61.9407 85.6989 61.1168 84.8111 61.1168 83.4759V83.3835H68.3896V82.517C68.3896 78.9233 66.2021 76.9489 63.1055 76.9489C59.81 76.9489 57.6935 79.2074 57.6935 82.5881C57.6935 86.0824 59.7816 88.206 63.212 88.206ZM61.1168 81.3665C61.1665 80.2798 62.0259 79.456 63.1765 79.456C64.32 79.456 65.1438 80.2514 65.158 81.3665H61.1168ZM70.1634 88H73.6009V86.2315H73.7074C74.1477 87.2401 75.1278 88.1562 76.7756 88.1562C79.1903 88.1562 81.1364 86.267 81.1364 82.5526C81.1364 78.7031 79.0767 76.9489 76.7969 76.9489C75.071 76.9489 74.1264 77.9574 73.7074 78.9588H73.6364V73.4545H70.1634V88ZM73.5653 82.5455C73.5653 80.7628 74.304 79.6619 75.5753 79.6619C76.8608 79.6619 77.571 80.7912 77.571 82.5455C77.571 84.3068 76.8608 85.4503 75.5753 85.4503C74.304 85.4503 73.5653 84.3139 73.5653 82.5455ZM92.4805 80.4219C92.2958 78.2628 90.5273 76.9489 87.5728 76.9489C84.6183 76.9489 82.7362 78.2344 82.7504 80.4219C82.7362 82.098 83.8086 83.1776 85.989 83.5824L87.8924 83.9446C88.7944 84.1222 89.2063 84.4062 89.2205 84.8892C89.2063 85.4361 88.5955 85.7983 87.7077 85.7983C86.7205 85.7983 86.0529 85.3722 85.9038 84.5767L82.4734 84.6619C82.7219 86.821 84.5756 88.206 87.6935 88.206C90.6126 88.206 92.7362 86.75 92.7504 84.5057C92.7362 82.9148 91.685 81.9702 89.5117 81.5511L87.4094 81.1534C86.4862 80.9688 86.1879 80.642 86.195 80.223C86.1879 79.669 86.8342 79.3281 87.6367 79.3281C88.5529 79.3281 89.1921 79.8182 89.2915 80.5071L92.4805 80.4219ZM94.4602 88H97.9332V77.0909H94.4602V88ZM96.2003 75.8196C97.1875 75.8196 97.983 75.0739 97.983 74.1577C97.983 73.2415 97.1875 72.5028 96.2003 72.5028C95.2202 72.5028 94.4176 73.2415 94.4176 74.1577C94.4176 75.0739 95.2202 75.8196 96.2003 75.8196ZM106.301 77.0909H104.334V74.4773H100.861V77.0909H99.4194V79.6477H100.861V84.9531C100.84 87.1619 102.275 88.2699 104.725 88.1562C105.563 88.1136 106.167 87.9432 106.5 87.8438L105.975 85.3366C105.826 85.3722 105.478 85.4432 105.215 85.4432C104.654 85.4432 104.334 85.2159 104.334 84.5696V79.6477H106.301V77.0909ZM113.056 88.206C115.918 88.206 117.8 86.821 118.198 84.6761L115.009 84.5838C114.739 85.3082 114.029 85.6989 113.12 85.6989C111.784 85.6989 110.961 84.8111 110.961 83.4759V83.3835H118.233V82.517C118.233 78.9233 116.046 76.9489 112.949 76.9489C109.654 76.9489 107.537 79.2074 107.537 82.5881C107.537 86.0824 109.625 88.206 113.056 88.206ZM110.961 81.3665C111.01 80.2798 111.87 79.456 113.02 79.456C114.164 79.456 114.988 80.2514 115.002 81.3665H110.961ZM130.504 77.0909H128.423V76.4801C128.423 75.8551 128.679 75.4716 129.489 75.4716C129.815 75.4716 130.213 75.5426 130.469 75.6207L131.023 73.0781C130.611 72.9645 129.666 72.7727 128.707 72.7727C126.484 72.7727 124.957 74.0085 124.957 76.5369V77.0909H123.487V79.6477H124.957V88H128.423V79.6477H130.504V77.0909ZM136.896 88.206C140.327 88.206 142.408 85.9403 142.408 82.581C142.408 79.2145 140.327 76.9489 136.896 76.9489C133.466 76.9489 131.385 79.2145 131.385 82.581C131.385 85.9403 133.466 88.206 136.896 88.206ZM136.918 85.5852C135.632 85.5852 134.922 84.3636 134.922 82.5597C134.922 80.7486 135.632 79.5199 136.918 79.5199C138.161 79.5199 138.871 80.7486 138.871 82.5597C138.871 84.3636 138.161 85.5852 136.918 85.5852ZM144.187 88H147.66V82.0767C147.66 80.777 148.583 79.9034 149.826 79.9034C150.238 79.9034 150.856 79.9744 151.19 80.0881V77.0696C150.898 76.9915 150.536 76.9418 150.217 76.9418C149.023 76.9418 148.072 77.6378 147.674 79.0795H147.56V77.0909H144.187V88ZM156.902 77.0909V88.3835C156.902 89.1151 156.582 89.4631 155.63 89.4631C155.495 89.4631 155.375 89.456 155.204 89.4347V92.0696C155.46 92.0838 155.659 92.0909 155.907 92.0909C158.627 92.0909 160.375 91.1534 160.375 88.4545V77.0909H156.902ZM158.635 75.8196C159.622 75.8196 160.417 75.0739 160.417 74.1577C160.417 73.2415 159.622 72.5028 158.635 72.5028C157.654 72.5028 156.852 73.2415 156.852 74.1577C156.852 75.0739 157.654 75.8196 158.635 75.8196ZM169.624 83.2912C169.624 84.5625 168.814 85.2727 167.784 85.2727C166.719 85.2727 166.065 84.5483 166.058 83.3622V77.0909H162.585V84.044C162.592 86.5085 164.091 88.142 166.335 88.142C167.969 88.142 169.183 87.304 169.666 85.9688H169.78V88H173.089V77.0909H169.624V83.2912ZM184.824 80.4219C184.64 78.2628 182.871 76.9489 179.917 76.9489C176.962 76.9489 175.08 78.2344 175.094 80.4219C175.08 82.098 176.152 83.1776 178.333 83.5824L180.236 83.9446C181.138 84.1222 181.55 84.4062 181.564 84.8892C181.55 85.4361 180.939 85.7983 180.051 85.7983C179.064 85.7983 178.397 85.3722 178.248 84.5767L174.817 84.6619C175.066 86.821 176.919 88.206 180.037 88.206C182.956 88.206 185.08 86.75 185.094 84.5057C185.08 82.9148 184.029 81.9702 181.855 81.5511L179.753 81.1534C178.83 80.9688 178.532 80.642 178.539 80.223C178.532 79.669 179.178 79.3281 179.98 79.3281C180.897 79.3281 181.536 79.8182 181.635 80.5071L184.824 80.4219ZM192.962 77.0909H190.994V74.4773H187.521V77.0909H186.08V79.6477H187.521V84.9531C187.5 87.1619 188.935 88.2699 191.385 88.1562C192.223 88.1136 192.827 87.9432 193.161 87.8438L192.635 85.3366C192.486 85.3722 192.138 85.4432 191.875 85.4432C191.314 85.4432 190.994 85.2159 190.994 84.5696V79.6477H192.962V77.0909Z" fill="white"/>
<path d="M53.4744 168.926H88.5952V181H105.392V168.926H114.092V155.077H105.392V108.273H83.2685L53.4744 155.219V168.926ZM88.9503 155.077H70.946V154.509L88.3821 126.881H88.9503V155.077ZM150.687 107.278C133.925 107.243 122.455 117.754 122.526 132.811C122.562 146.199 131.688 155.929 144.721 155.929C152.853 155.929 160.168 152.023 163.187 145.489H163.613C163.577 158.734 159.21 167.009 150.332 167.009C145.431 167.009 141.667 164.594 140.602 159.729H123.308C124.621 172.264 134.991 181.994 150.332 181.994C168.869 181.994 181.013 167.399 180.942 143.145C180.907 116.866 166.631 107.314 150.687 107.278ZM150.793 120.773C157.221 120.773 161.944 125.851 162.015 132.207C162.05 138.599 157.114 143.713 150.722 143.713C144.224 143.713 139.607 138.741 139.572 132.243C139.501 125.78 144.295 120.773 150.793 120.773Z" fill="#1F2937"/>
<path d="M46.1591 135.909H49.1136L49.1477 133.25C54.125 132.864 57.0227 130.318 57.0455 126.25C57.0227 122.534 54.5114 120.261 49.9205 119.25L49.3182 119.114L49.3864 114.273C50.5682 114.659 51.2386 115.5 51.3409 116.705H56.7273C56.6818 112.807 53.9091 110.045 49.4432 109.5L49.4773 106.818H46.5227L46.4886 109.466C41.8636 109.909 38.6591 112.67 38.6932 116.636C38.6818 120.17 41.1591 122.159 45.1818 123.08L46.3182 123.341L46.25 128.489C44.6023 128.102 43.5795 127.011 43.4773 125.25H38.0909C38.1477 130.182 41.2614 132.773 46.1932 133.227L46.1591 135.909ZM49.2045 128.477L49.2614 124.114C50.6705 124.625 51.3182 125.261 51.3409 126.239C51.3182 127.318 50.5568 128.136 49.2045 128.477ZM46.375 118.364C45.1818 117.909 44.4773 117.261 44.5114 116.25C44.5227 115.273 45.1591 114.511 46.4318 114.205L46.375 118.364Z" fill="#1F2937"/>
</svg>
