<svg xmlns="http://www.w3.org/2000/svg" viewBox="0 0 500 500">
    <g id="freepik--background-simple--inject-29">
        <path d="M89.45,289.24c46.24,53,92.93,59.7,158.56,72.27s113.82,3.87,149.33-28.13c41-37,39.37-121.76-23.36-151.94-19.6-9.46-42.94-12.32-60.11-25.6-32.79-25.36-59.31-64.82-112-72.26s-88.13,27.89-88.13,27.89C70.56,158.85,43.21,236.2,89.45,289.24Z"
              style="fill:#90CAF9"></path>
        <path d="M89.45,289.24c46.24,53,92.93,59.7,158.56,72.27s113.82,3.87,149.33-28.13c41-37,39.37-121.76-23.36-151.94-19.6-9.46-42.94-12.32-60.11-25.6-32.79-25.36-59.31-64.82-112-72.26s-88.13,27.89-88.13,27.89C70.56,158.85,43.21,236.2,89.45,289.24Z"
              style="fill:#fff;opacity:0.7000000000000001;isolation:isolate"></path>
    </g>
    <g id="freepik--Shadow--inject-29">
        <path d="M424.88,376.79c0-4.77-42.9-8.65-95.82-8.65-47.19,0-86.39,3.08-94.33,7.14h-5.37c-91,0-164.82,8.88-164.82,19.83S138.33,415,229.36,415s164.81-8.88,164.81-19.84c0-3.84-9.08-7.43-24.8-10.46C402.15,383.26,424.88,380.27,424.88,376.79Z"
              style="fill:#90CAF9"></path>
        <path d="M424.88,376.79c0-4.77-42.9-8.65-95.82-8.65-47.19,0-86.39,3.08-94.33,7.14h-5.37c-91,0-164.82,8.88-164.82,19.83S138.33,415,229.36,415s164.81-8.88,164.81-19.84c0-3.84-9.08-7.43-24.8-10.46C402.15,383.26,424.88,380.27,424.88,376.79Z"
              style="fill:#fff;opacity:0.4000000059604645;isolation:isolate"></path>
    </g>
    <g id="freepik--credit-card--inject-29">
        <path d="M281.88,319.12,133.66,292a8.11,8.11,0,0,1-6.53-9.45h0l15.43-84.39a8.13,8.13,0,0,1,9.46-6.53l148.22,27.12a8.13,8.13,0,0,1,6.54,9.45l-15.44,84.39A8.13,8.13,0,0,1,281.88,319.12Z"
              style="fill:#2e353a;stroke:#2e353a;stroke-linecap:round;stroke-linejoin:round"></path>
        <path d="M279.53,215c-10.56,5.85-23,10.7-35.89,11.51-35.51,2.23-50.59-13.81-90.13-8.69A100,100,0,0,0,138.4,221l-6.62,36.18a91.8,91.8,0,0,1,36.3-16.48c34.91-7.32,49.55,5.63,81.08,1.13,18.71-2.67,35.44-14.66,46-24Z"
              style="fill:#90CAF9;stroke:#2e353a;stroke-linecap:round;stroke-linejoin:round"></path>
        <path d="M140.17,211.26c1.39-.36,2.8-.71,4.26-1,34.91-7.32,49.55,5.63,81.08,1.12a64,64,0,0,0,14-3.73l-86.6-15.85a9.06,9.06,0,0,0-10.53,7.28Z"
              style="fill:#90CAF9;stroke:#2e353a;stroke-linecap:round;stroke-linejoin:round"></path>
        <rect x="152.41" y="217.72" width="17.2" height="17.8" rx="3.06"
              transform="translate(-90.97 344.04) rotate(-79.59)"
              style="fill:#fff;stroke:#2e353a;stroke-linecap:round;stroke-linejoin:round;stroke-width:0.9963935166182858px"></rect>
        <rect x="158.91" y="224.68" width="5.35" height="5.54" rx="1.5"
              transform="translate(-91.23 345.46) rotate(-79.63)"
              style="fill:#fff;stroke:#2e353a;stroke-linecap:round;stroke-linejoin:round"></rect>
        <path d="M154,219.25l5.15.95a1.83,1.83,0,0,1,1.48,2.12v0l-.39,2.14"
              style="fill:none;stroke:#2e353a;stroke-linecap:round;stroke-linejoin:round"></path>
        <path d="M171.6,222.47l-5.08-.93a1.84,1.84,0,0,0-2.15,1.47h0l-.39,2.14"
              style="fill:none;stroke:#2e353a;stroke-linecap:round;stroke-linejoin:round"></path>
        <path d="M151.6,232.58l5.14.94a1.84,1.84,0,0,0,2.15-1.49l.39-2.14"
              style="fill:none;stroke:#2e353a;stroke-linecap:round;stroke-linejoin:round"></path>
        <path d="M169.16,235.79l-5.08-.93a1.84,1.84,0,0,1-1.48-2.14h0l.39-2.14"
              style="fill:none;stroke:#2e353a;stroke-linecap:round;stroke-linejoin:round"></path>
        <line x1="152.78" y1="226.26" x2="158.81" y2="227.36"
              style="fill:none;stroke:#2e353a;stroke-linecap:round;stroke-linejoin:round"></line>
        <line x1="164.11" y1="228.33" x2="170.14" y2="229.43"
              style="fill:none;stroke:#2e353a;stroke-linecap:round;stroke-linejoin:round"></line>
        <path d="M267.05,299.25a8.36,8.36,0,1,1-6.73-9.72h0A8.36,8.36,0,0,1,267.05,299.25Z"
              style="fill:#fff;stroke:#2e353a;stroke-linecap:round;stroke-linejoin:round"></path>
        <path d="M278.21,301.3a8.35,8.35,0,1,1-6.71-9.72A8.35,8.35,0,0,1,278.21,301.3Z"
              style="fill:#90CAF9;stroke:#2e353a;stroke-linecap:round;stroke-linejoin:round"></path>
    </g>
    <g id="freepik--Character--inject-29">
        <path d="M266,207s29.8-4.89,33.74-4.66S337,211.09,337,211.09a19.61,19.61,0,0,1,.7,6.1c-.18,3.16-3.64,8.23-3.64,8.23L299.83,210l-31.41,1.46Z"
              style="fill:#fff;stroke:#2e353a;stroke-linecap:round;stroke-linejoin:round"></path>
        <path d="M323.55,207.72l9.07,10-5.7-2.28,4.11,4.33-4.34-1.83-2.05,1.6-12.53-8.21,3.19,3.42s-15.27-8-16-8-29.86,4.33-29.86,4.33l2.57.21L299.83,210,334,225.42s3.46-5.07,3.64-8.23a20.26,20.26,0,0,0-.7-6.1S330.84,209.52,323.55,207.72Z"
              style="fill:#90CAF9;opacity:0.5;isolation:isolate"></path>
        <path d="M268.42,211.46s-7.36,2.55-8.51,2.44c-.85-.08-4.88-.27-7-.36-.71,0-1.4,0-1.44-.72h0a1.37,1.37,0,0,1,1.13-1.41l2.7-.47s-9.37-1.34-10.08-2.45,3.76-.61,4.9-.81c1.76-.3,10.65-.19,10.65-.19L266,207Z"
              style="fill:#fff;stroke:#2e353a;stroke-linecap:round;stroke-linejoin:round"></path>
        <path d="M311.27,185.76l-.62,10.64,3.42.54s3.1,11.89,4.09,12.63S327,206,327,206l4.83,5.79,6.46-4.45L334.81,202s2.2-20.2,1.43-24.72-3.46-5.71-9.64-6.07A27.21,27.21,0,0,0,315.48,173s1.93-3.68-4.63-3.37-9,7.4-7.86,10.91S311.27,185.76,311.27,185.76Z"
              style="fill:#fff;stroke:#2e353a;stroke-linecap:round;stroke-linejoin:round"></path>
        <path d="M334.79,201.93s2.2-20.2,1.43-24.72-3.46-5.71-9.64-6.07a27.21,27.21,0,0,0-11.12,1.77,2.18,2.18,0,0,0-.24-2.38,30,30,0,0,0-4.48,1.12c-2.12.74-4.67,1.58-6.8,2.26a9.17,9.17,0,0,0-1.13,6L305,183a21.14,21.14,0,0,0,6.26,2.81l-.12,2.05a25.75,25.75,0,0,0,3.92.48c2.28,0,5.7-1.82,5.7-1.82s-2,3.19.45,5a8.9,8.9,0,0,0,4.79,1.83s1.6,5.47,1.6,7.29c0,1.42-6.53,6.74-9.39,9,1.17.59,8.76-3.64,8.76-3.64l4.83,5.79,6.46-4.45Z"
              style="fill:#90CAF9;opacity:0.5;isolation:isolate"></path>
        <path d="M336.22,177.21c-.78-4.52-3.46-5.71-9.64-6.07a27.21,27.21,0,0,0-11.12,1.77s1.93-3.68-4.63-3.37-9,7.4-7.86,10.91,8.3,5.31,8.3,5.31,8.62-.19,12.92-3c0,0-3,4-2.44,6.41a2.46,2.46,0,0,0,2.89,1.92l.11,0,.83,3.49s2,1.15,2.41.14.33-5.83,3-4,2.79,5.33,1.36,6.28-2.42.2-1.51,2.32,4,2.65,4,2.65S337,181.73,336.22,177.21Z"
              style="fill:#2e353a;stroke:#2e353a;stroke-linecap:round;stroke-linejoin:round"></path>
        <path d="M317,176.18s-3-3-4.68.82,1.65,6.05,9.08,4.95,12.38-3.3,13.21-3.3"
              style="fill:none;stroke:#fff;stroke-linecap:round;stroke-linejoin:round;stroke-width:0.5px"></path>
        <path d="M322.22,185A33.29,33.29,0,0,0,336,183.9"
              style="fill:none;stroke:#fff;stroke-linecap:round;stroke-linejoin:round;stroke-width:0.5px"></path>
        <path d="M316.6,191.16c.1.67-.07,1.26-.38,1.3s-.66-.46-.76-1.13.07-1.26.39-1.31S316.5,190.48,316.6,191.16Z"
              style="fill:#2e353a"></path>
        <path d="M318,202.42s2.8,0,3.92-2.09"
              style="fill:none;stroke:#2e353a;stroke-linecap:round;stroke-linejoin:round"></path>
        <path d="M314.39,186.85a2.57,2.57,0,0,1,2.78.33"
              style="fill:none;stroke:#2e353a;stroke-linecap:round;stroke-linejoin:round"></path>
        <path d="M350.58,272l1.37,4s-23.66,15.83-29.9,22.13S310,310.35,310.58,313.52s7.79,48.23,7.79,48.23l9-.65s.58-43.83,1.82-44.93,37.08-24.89,37.08-24.89,3.17-.6,4.68.28,9.89,32.29,12.14,34S414,361.92,414,361.92l7.5-1.92s-25.2-45.45-25.14-46.62c0-.67-5.39-25.18-10.94-41-4.17-11.85-8.86-16.18-8.86-16.18Z"
              style="fill:#2e353a;stroke:#2e353a;stroke-linecap:round;stroke-linejoin:round"></path>
        <path d="M375.42,260.68s4.71,8.45,6.77,11.54,2.36,10.55,2.36,10.55,10.23,28.86,11.07,33.74,24.26,43.43,24.26,43.43"
              style="fill:none;stroke:#fff;stroke-linecap:round;stroke-linejoin:round;stroke-width:0.5px"></path>
        <polyline points="353.16 285.42 366.31 291.29 356.98 290.11"
                  style="fill:none;stroke:#fff;stroke-linecap:round;stroke-linejoin:round;stroke-width:0.5px"></polyline>
        <path d="M335.24,306l-9.5,9.86s-8.18-.1-5.65,1.16a32.82,32.82,0,0,1,5.37,3.66v39.05"
              style="fill:none;stroke:#fff;stroke-linecap:round;stroke-linejoin:round;stroke-width:0.5px"></path>
        <path d="M353.47,273.54a35,35,0,0,0,23.19-15"
              style="fill:none;stroke:#fff;stroke-linecap:round;stroke-linejoin:round;stroke-width:0.5px"></path>
        <line x1="360.82" y1="268.76" x2="362.13" y2="271.81"
              style="fill:none;stroke:#fff;stroke-linecap:round;stroke-linejoin:round;stroke-width:0.5px"></line>
        <line x1="368.94" y1="263.28" x2="370.65" y2="265.98"
              style="fill:none;stroke:#fff;stroke-linecap:round;stroke-linejoin:round;stroke-width:0.5px"></line>
        <path d="M330.48,213.23s-1.19,7,1.28,18.48S350.58,272,350.58,272l2.62-.56a37,37,0,0,0,19.25-10.81l4.11-4.36s-14.84-27.89-20.5-38.4a20.33,20.33,0,0,0-17.76-11.21C335.57,206.48,330.18,211.65,330.48,213.23Z"
              style="fill:#fff;stroke:#2e353a;stroke-linecap:round;stroke-linejoin:round"></path>
        <g style="opacity:0.5">
            <path d="M356.06,217.84A20.06,20.06,0,0,0,342,207.09c1.79.88,7.3,3.93,9.76,9.24,3,6.38-.91,15.95-.91,15.95l-.05-1.36c-2,7.31-5.36,18.35-7.75,25.45l3-7.67,1.37-5,10,3.88-5.25-5.25s10.95,6.61,13.91,9.35a8.41,8.41,0,0,1,2.28,10,21,21,0,0,1-3.29,4.89,37.41,37.41,0,0,0,7.33-6l4.11-4.36S361.72,228.35,356.06,217.84Z"
                  style="fill:#90CAF9"></path>
        </g>
        <path d="M348.23,236.49s6.14-5.81,9.2-8.53"
              style="fill:none;stroke:#2e353a;stroke-linecap:round;stroke-linejoin:round;stroke-width:0.5px"></path>
        <path d="M357.72,235.88c.63-.16,1.24-.34,1.82-.55"
              style="fill:none;stroke:#2e353a;stroke-linecap:round;stroke-linejoin:round;stroke-width:0.5px"></path>
        <path d="M346.4,236.75a49.23,49.23,0,0,0,9-.41"
              style="fill:none;stroke:#2e353a;stroke-linecap:round;stroke-linejoin:round;stroke-width:0.5px"></path>
        <polygon points="338.88 203.53 327.04 211.86 330.32 215.96 341.43 206.81 338.88 203.53"
                 style="fill:#fff;stroke:#2e353a;stroke-linecap:round;stroke-linejoin:round"></polygon>
        <path d="M352.53,223.84c-.42,4-10.81,38.34-12.15,39.36s-44.13,12.36-44.13,12.36l-2.32-3.44,36.75-18.26,7.92-35.76"
              style="fill:#fff;stroke:#2e353a;stroke-linecap:round;stroke-linejoin:round"></path>
        <path d="M350.81,230.92c-.1-2.7-.39-8.35-1.09-7.3-.91,1.37-2.74,12.31-5.7,20.29s-8.66,11.4-7.52,11.62,2.05,3.88,2.05,3.88l-41.35,15.9c2.31-.61,8.62-2.29,15.74-4.22l27.44-7.89,2.68-6.83C345.45,249.27,348.8,238.23,350.81,230.92Z"
              style="fill:#90CAF9;opacity:0.5;isolation:isolate"></path>
        <path d="M296.45,275.8l-2.52-3.68-12.28-2.42a.77.77,0,0,0-.87.67.13.13,0,0,0,0,.06.76.76,0,0,0,.48.76l4.5,1.87-3.24,2.65c-.93.72-4.94,3.13-5.24,4.05-.59,1.8,1.83.32,2.42.11,1.31-.48,2.14-1.07,4.34-1.93.43.59-4.55,3.37-5.12,3.82-.24.19-.63.42-.64.78-.08,1.38,2.23,0,2.77-.27,1.55-.65,3.08-1.36,4.63-2-1.08.81-2.9,1.72-4,2.53a11.93,11.93,0,0,0-1.44,1c-.56.57-.09,1.2.73.95a16.2,16.2,0,0,0,2.55-1.32c1.25-.67,1.94-1.28,3.18-2-.9.7-1.34,1.22-2.25,1.92-.35.27-1.15.74-1.31,1.17-.58,1.5,2.7-.57,3.07-.84,1.29-.92,2.8-1.68,4-2.66.17-.14,2-1.95,2-1.93Z"
              style="fill:#fff;stroke:#2e353a;stroke-linecap:round;stroke-linejoin:round;stroke-width:0.5px"></path>
        <line x1="330.11" y1="223.47" x2="323.44" y2="213.67"
              style="fill:none;stroke:#2e353a;stroke-linecap:round;stroke-linejoin:round;stroke-width:0.5px"></line>
        <line x1="329.42" y1="223.15" x2="321.99" y2="216.91"
              style="fill:none;stroke:#2e353a;stroke-linecap:round;stroke-linejoin:round;stroke-width:0.5px"></line>
        <path d="M318.37,361.75l-.67.72-4.71,5s-10.6,3.83-10.68,5.31,11.32.66,14.8.36,7.61-3.51,7.61-3.51,4.4.75,5.1-2.67-2.41-5.88-2.41-5.88Z"
              style="fill:#fff;stroke:#2e353a;stroke-linecap:round;stroke-linejoin:round"></path>
        <path d="M414,361.92a82.08,82.08,0,0,0-3.53,8.78c-1.21,3.88-5.24,5.13-3.38,7.21s6.37.86,10.1-3.86,7.3-6.5,7.41-8.47-3.1-5.58-3.1-5.58Z"
              style="fill:#fff;stroke:#2e353a;stroke-linecap:round;stroke-linejoin:round"></path>
        <path d="M407,377.91a12.37,12.37,0,0,0,7.22-2.59c3.15-2.63,5.78-7.88,7.62-9.2l1.84-1.31"
              style="fill:none;stroke:#2e353a;stroke-linecap:round;stroke-linejoin:round;stroke-width:0.5px"></path>
        <path d="M303.42,372.43s10.25-1.05,14.45-1.58,5.51-3.41,6.83-3.68,2.82-.8,4.2-1.31"
              style="fill:none;stroke:#2e353a;stroke-linecap:round;stroke-linejoin:round;stroke-width:0.5px"></path>
    </g>
    <g id="freepik--Device--inject-29">
        <path d="M71.6,319.93s-10.07,11.55-8.14,27.57,18.91,24.38,18.91,24.38l20.78-40.69s-10.47-10.33-3.1-23.51C100.05,307.68,82.6,309.85,71.6,319.93Z"
              style="fill:#fff;stroke:#2e353a;stroke-linecap:round;stroke-linejoin:round"></path>
        <path d="M71.6,319.93s-10.07,11.55-8.14,27.57,18.91,24.38,18.91,24.38l20.78-40.69s-10.47-10.33-3.1-23.51C100.05,307.68,82.6,309.85,71.6,319.93Z"
              style="fill:#90CAF9;opacity:0.5;isolation:isolate"></path>
        <path d="M161.36,289.88s-13.08.4-17.47,2.52-32.79,22.34-49,45.9c-5.52,8-7.52,12.42-8.25,14.57A35.4,35.4,0,0,1,85,357c-1.81,3.93-4.81,12-3.7,20.4,1.55,11.76,8.42,23.22,34.83,28.09s36.41-14.8,37.06-23.21c0,0,64.16,4.63,104,9.14s53.07,2,66.41,7.27,16.6,8.7,22.24,8.78,21.85-18,22.25-23.3-5-12.73-6.72-13.21-22.6-31.37-22.6-31.37-.94-6.07-10.07-11-54.6-18.7-79.45-25.56S174.06,289.81,161.36,289.88Z"
              style="fill:#fff;stroke:#2e353a;stroke-linecap:round;stroke-linejoin:round"></path>
        <path d="M365.47,375.83A86.67,86.67,0,0,0,348,369.24l-75.18-20.6-99.13-17.27s-41.22-6.68-59.6,2.23c-13.07,6.34-26.42,27-33,38.47a29.11,29.11,0,0,0,.19,5.36c1.55,11.76,8.42,23.22,34.83,28.09s36.41-14.8,37.06-23.21c0,0,64.16,4.63,104,9.14s53.07,2,66.41,7.27,16.6,8.7,22.24,8.78,21.85-18,22.25-23.3C368.23,381.58,367,378.41,365.47,375.83Z"
              style="fill:#90CAF9;opacity:0.5;isolation:isolate"></path>
        <path d="M87.07,361.32S106,331.06,124.83,329s78.79,6.82,78.79,6.82"
              style="fill:none;stroke:#2e353a;stroke-linecap:round;stroke-linejoin:round"></path>
        <path d="M209.87,337s37,5.34,85.37,17.56,68,19,70.61,21.35"
              style="fill:none;stroke:#2e353a;stroke-linecap:round;stroke-linejoin:round"></path>
        <path d="M245.94,310.75S325,331.26,330,333.31a18.16,18.16,0,0,1,7.49,5.55"
              style="fill:#fff;stroke:#2e353a;stroke-linecap:round;stroke-linejoin:round"></path>
        <path d="M146.93,294.05,126.67,323.5s28.6-.6,104.15,11.61l1.75-27s-36.49-11.3-51.57-12.47S146.93,294.05,146.93,294.05Z"
              style="fill:#2e353a;stroke:#2e353a;stroke-linecap:round;stroke-linejoin:round"></path>
        <path d="M127,323.49c1.54,0,8.31,0,21.65,1.09L134.58,312l-.92,1.34Z"
              style="fill:#fff;stroke:#2e353a;stroke-linecap:round;stroke-linejoin:round"></path>
        <path d="M146.93,294.05l-3.85,5.61,33.51,27.75c8.54,1,18.3,2.28,29.37,3.89q5.88.66,12.24,1.44L171.93,295C159.26,294.32,146.93,294.05,146.93,294.05Z"
              style="fill:#fff;stroke:#2e353a;stroke-linecap:round;stroke-linejoin:round"></path>
        <path d="M233.92,313.78l-.27,16c3.94-.21,10.09-.07,14.53,2.2a36.12,36.12,0,0,0-2.43-16Z"
              style="fill:#fff;stroke:#2e353a;stroke-miterlimit:10"></path>
        <path d="M245,314.22a31.24,31.24,0,0,0-3-5l-8-1.68-.08,5Z"
              style="fill:#fff;stroke:#2e353a;stroke-miterlimit:10"></path>
        <path d="M233.62,331.94l-.08,4.44,13.59,2.12a31.14,31.14,0,0,0,.9-4.87C245.57,332.55,240.93,331.27,233.62,331.94Z"
              style="fill:#fff;stroke:#2e353a;stroke-miterlimit:10"></path>
        <path d="M264.57,315.15s-7.59-1.88-8.89-1.8-1.65,2.27-1.65,2.27l2.72,5.37s-.44.88,3.52,2.11,7.43,1.5,7.84,1,.34-2,.62-3.27S266.4,315.29,264.57,315.15Z"
              style="fill:#fff;stroke:#2e353a;stroke-linecap:round;stroke-linejoin:round"></path>
        <path d="M269.55,324.56s-7.55-2.43-8.85-2.35-2.6,2.75-2.6,2.75.95,6.7,1.81,7.51,9.18,2.74,10.46,2.84,1.78-1.52,1.9-3.17S271,325,269.55,324.56Z"
              style="fill:#fff;stroke:#2e353a;stroke-linecap:round;stroke-linejoin:round"></path>
        <path d="M272.41,335.1s-9.56-2.59-10.47-2.66-2.22,2.41-2.08,3-.06,5.52-.06,5.52l14.87,3-1.12-6.9S273.58,336.66,272.41,335.1Z"
              style="fill:#fff;stroke:#2e353a;stroke-linecap:round;stroke-linejoin:round"></path>
        <path d="M271.78,317.18l-1.07,1.94,3.22,6s.09,1.12,3.16,1.91,8.69,2,8.69,2,1.61-1.72,1.3-2.48-3.74-6.37-5.15-7.21S272.21,316.29,271.78,317.18Z"
              style="fill:#fff;stroke:#2e353a;stroke-linecap:round;stroke-linejoin:round"></path>
        <path d="M277.09,327a9.77,9.77,0,0,0-1.11,2.49c-.06.73.95,6.7,2.5,8.11s10.49,2.48,11.77,2.58,1.62-1.9,1.74-3.37-1.88-6.59-3.29-7.44-9.55-2.77-9.55-2.77S277.73,325.93,277.09,327Z"
              style="fill:#fff;stroke:#2e353a;stroke-linecap:round;stroke-linejoin:round"></path>
        <path d="M292.7,340.3a3,3,0,0,0-.91-.52c-2.06-.7-9.74-3.26-11.07-2.56-1.54.8-2.06,2.78-2,4.44a22.28,22.28,0,0,0,.46,3.54l15.87,4.36L293.69,342a2.87,2.87,0,0,0-1-1.7Z"
              style="fill:#fff;stroke:#2e353a;stroke-linecap:round;stroke-linejoin:round"></path>
        <path d="M288.21,321.4l-.42,3.1s1.67,4.55,3.46,5.24,10.11,2.63,10.66,2.67,1.8-1.88,1.7-3-3.22-6-5-6.66-9.05-2-9.05-2S287.92,320.46,288.21,321.4Z"
              style="fill:#fff;stroke:#2e353a;stroke-linecap:round;stroke-linejoin:round"></path>
        <path d="M295.08,330.23l-1.6,3.92s2.08,6.43,2.38,7.37,11.9,3.32,12.47,3,1.91-.78,1.74-3.37-3.74-8.76-5.19-9.06-7.59-1.88-8.14-1.92S295.32,329.51,295.08,330.23Z"
              style="fill:#fff;stroke:#2e353a;stroke-linecap:round;stroke-linejoin:round"></path>
        <path d="M299.48,342.36s-2,3.9-1.56,5.77a20.73,20.73,0,0,0,1.2,3.59l15.71,4s-1.87-6.78-2.24-9-4.35-3.28-7.59-4.27S299.2,341.23,299.48,342.36Z"
              style="fill:#fff;stroke:#2e353a;stroke-linecap:round;stroke-linejoin:round"></path>
        <path d="M304.7,324.9l-.24,3.11s3.83,5.27,4.85,6.27,9.38,2.57,10.13,2.44,1.07-1.94.79-3.07-4.33-5.86-5.94-6.54-8.26-2.66-8.26-2.66S304.24,323.75,304.7,324.9Z"
              style="fill:#fff;stroke:#2e353a;stroke-linecap:round;stroke-linejoin:round"></path>
        <path d="M311.86,334.66s-1.06,4.16-.54,4.56,2.82,6.49,4.05,7.13,10.3,2.65,11.43,2.36,1.29-2.47.7-4.36-4.26-6.78-6.4-7.68c-1.53-.65-7.58-2.06-7.58-2.06S312.3,333.77,311.86,334.66Z"
              style="fill:#fff;stroke:#2e353a;stroke-linecap:round;stroke-linejoin:round"></path>
        <path d="M325.56,348.07s-5.55-2.09-6.5-1.8-2.1,3.34-2.14,3.89,2,7.15,2,7.15l14.78,4.28v-2.76c0-2.4-3.56-8.75-4.25-9.35S325.56,348.07,325.56,348.07Z"
              style="fill:#fff;stroke:#2e353a;stroke-linecap:round;stroke-linejoin:round"></path>
        <path d="M321.81,329.91a19.11,19.11,0,0,0-.59,2.9c-.09,1.1,3.13,4.66,4.71,5.71s9.34,3.12,9.88,3.16,2-1.69,1-3.42a22,22,0,0,0-5.82-5.8A28.55,28.55,0,0,0,321.81,329.91Z"
              style="fill:#90CAF9;stroke:#2e353a;stroke-linecap:round;stroke-linejoin:round"></path>
        <path d="M329.7,339.73a12,12,0,0,0-.73,2.34c-.06.73,3.54,6.54,4.39,7.52s8.81,2.71,9.73,2.78,3-.13,2.24-2.77-3-6.86-5.12-7.58-6.11-1.95-7.91-2.46A2.91,2.91,0,0,0,329.7,339.73Z"
              style="fill:#90CAF9;stroke:#2e353a;stroke-linecap:round;stroke-linejoin:round"></path>
        <path d="M337.5,350.84a11.21,11.21,0,0,0-1.63,4.29c-.15,2,1.49,6.93,3.05,8.16s12.21,4.08,12.21,4.08a52.18,52.18,0,0,0,1.33-5.24c.33-2-5.06-8.32-5.56-9.09S338.79,350.75,337.5,350.84Z"
              style="fill:#90CAF9;stroke:#2e353a;stroke-linecap:round;stroke-linejoin:round"></path>
        <path d="M357.8,393.28c-3.8-1-9.73-1.82-11.94-5.16s-4.68-7.77-27.11-9.51-173.78-23-189.22-23.87-27.46,17.61-27.46,17.61-9.43-1.08-15.28-3a13.92,13.92,0,0,1-5-2.88,32.53,32.53,0,0,0-.54,10.91c1.55,11.76,8.42,23.22,34.83,28.09s36.41-14.8,37.06-23.21c0,0,64.16,4.63,104,9.14s53.07,2,66.41,7.27,16.6,8.7,22.24,8.78c3.41.05,10.69-6.57,16-13C360.26,394,358.84,393.55,357.8,393.28Z"
              style="fill:#2e353a;stroke:#2e353a;stroke-linecap:round;stroke-linejoin:round"></path>
        <path d="M99.62,376.75S94.94,387,93.11,392.46"
              style="fill:none;stroke:#fff;stroke-linecap:round;stroke-linejoin:round;stroke-width:0.75px"></path>
        <path d="M105.87,373.35s27,6.33,43.77,8.34"
              style="fill:none;stroke:#fff;stroke-linecap:round;stroke-linejoin:round;stroke-width:0.75px"></path>
        <path d="M126.67,323.5s-16.76-11.17-30.43-12.24-24.64,8.67-24.64,8.67,33.66-29.47,42.91-30.51,21.32-2.23,32.42,4.63Z"
              style="fill:#fff;stroke:#2e353a;stroke-linecap:round;stroke-linejoin:round"></path>
    </g>
</svg>
